<?xml version="1.0" encoding="UTF-8" standalone="no"?>
<svg
   xmlns:dc="http://purl.org/dc/elements/1.1/"
   xmlns:cc="http://creativecommons.org/ns#"
   xmlns:rdf="http://www.w3.org/1999/02/22-rdf-syntax-ns#"
   xmlns:svg="http://www.w3.org/2000/svg"
   xmlns="http://www.w3.org/2000/svg"
   xmlns:sodipodi="http://sodipodi.sourceforge.net/DTD/sodipodi-0.dtd"
   xmlns:inkscape="http://www.inkscape.org/namespaces/inkscape"
   width="1024"
   height="1024"
   viewBox="0 0 270.93333 270.93333"
   version="1.1"
   id="svg8"
   sodipodi:docname="notes.svg"
   inkscape:version="1.0.1 (3bc2e813f5, 2020-09-07)">
  <defs
     id="defs2" />
  <sodipodi:namedview
     id="base"
     pagecolor="#ffffff"
     bordercolor="#666666"
     borderopacity="1.0"
     inkscape:pageopacity="0.0"
     inkscape:pageshadow="2"
     inkscape:zoom="0.87843138"
     inkscape:cx="506.50218"
     inkscape:cy="460.36337"
     inkscape:document-units="px"
     inkscape:current-layer="layer1"
     inkscape:document-rotation="0"
     showgrid="false"
     units="px"
     viewbox-width="1024"
     fit-margin-top="0"
     fit-margin-left="0"
     fit-margin-right="0"
     fit-margin-bottom="0"
     inkscape:pagecheckerboard="true"
     width="1024mm"
     inkscape:window-width="1920"
     inkscape:window-height="1027"
     inkscape:window-x="-8"
     inkscape:window-y="-8"
     inkscape:window-maximized="1"
     inkscape:snap-grids="false" />
  <metadata
     id="metadata5">
    <rdf:RDF>
      <cc:Work
         rdf:about="">
        <dc:format>image/svg+xml</dc:format>
        <dc:type
           rdf:resource="http://purl.org/dc/dcmitype/StillImage" />
        <dc:title />
      </cc:Work>
    </rdf:RDF>
  </metadata>
  <g
     inkscape:label="Livello 1"
     inkscape:groupmode="layer"
     id="layer1">
    <rect
       style="fill:#ffffff;stroke-width:0.266742"
       id="rect168"
       width="270.93332"
       height="270.93332"
       x="-2.220446e-16"
       y="5.5511151e-17" />
    <rect
       style="fill:#e6e6e6;stroke-width:0.264583"
       id="rect170"
       width="134.55951"
       height="156.10417"
       x="68.791664"
       y="55.5625" />
    <path
       style="fill:#000000;stroke-width:0.264583"
       id="path154"
       d="m 90.658732,92.001177 c -0.215702,-4.685733 -0.25463,-9.377087 -0.236151,-14.066996 0.07162,-3.273515 0.156175,-6.549318 0.356674,-9.818089 0.04537,-0.73969 0.05475,-1.484588 0.168992,-2.216809 0.07022,-0.450027 0.815811,-1.449567 0.381595,-1.312047 -1.212638,0.384056 -2.086819,1.455047 -3.13023,2.182571 0.29481,0.458513 0.637797,0.88941 0.884423,1.375537 0.885621,1.745666 1.989627,4.70298 2.644119,6.446824 1.35619,3.613465 2.626087,7.259601 3.925779,10.893581 0.202962,0.559684 1.491707,4.161923 1.830639,4.933638 0.214807,0.489098 0.413826,1.000268 0.747003,1.417826 0.190878,0.23922 0.500343,0.623903 0.775928,0.490804 4.889087,-2.36126 4.218087,-1.944185 5.676107,-5.434928 0.33378,-1.028104 0.69381,-2.048052 1.00134,-3.084308 0.48578,-1.636864 1.38321,-5.16944 1.81968,-6.847139 0.62846,-2.415691 1.26337,-4.828238 1.85725,-7.252663 0,0 -3.74622,1.804731 -3.74622,1.804731 v 0 c -0.49613,2.38416 -1.0283,4.757502 -1.61146,7.12225 -0.53824,2.182603 -1.16437,4.699997 -1.86336,6.831988 -0.34374,1.048433 -0.76404,2.070198 -1.14607,3.105296 -1.162138,2.232443 -2.543715,3.596492 1.64771,1.340551 0.22736,-0.122373 -0.56244,-0.01482 -0.7505,-0.191738 -0.37549,-0.353238 -0.59943,-0.84309 -0.83627,-1.300994 -0.48687,-0.941289 -1.693012,-4.006752 -2.018566,-4.812892 -1.376349,-3.604014 -2.708508,-7.218656 -3.983823,-10.859892 -0.193017,-0.55109 -2.010035,-5.844249 -2.355678,-6.681787 -0.27368,-0.663157 -0.636985,-1.285677 -0.955477,-1.928514 -1.419754,0.7677 -3.003632,1.288971 -4.259262,2.3031 -0.342797,0.276866 -0.173763,0.866106 -0.208524,1.305373 -0.05719,0.722796 -0.04947,1.449294 -0.06681,2.174142 -0.07779,3.250713 -0.113726,6.502534 -0.206926,9.752935 -0.07462,4.783344 -0.100798,9.568633 -0.30821,14.348579 0,0 3.9663,-2.02093 3.9663,-2.02093 z" />
    <path
       style="fill:#000000;stroke-width:0.264583"
       id="path156"
       d="m 114.28945,98.384957 c -2.25092,0.236042 -4.84231,2.231463 -6.31827,3.270493 -0.25392,0.17875 -1.42504,1.91612 -1.55731,2.10665 -1.32397,2.49446 -2.06331,5.28102 -1.958,8.11722 0.0231,0.62226 0.11902,1.23967 0.17854,1.8595 0.40355,2.4414 1.36676,4.71048 2.74342,6.75807 0.28367,0.42192 0.57352,0.84249 0.907,1.22626 0.31675,0.3645 0.69156,0.67418 1.03735,1.01127 1.12725,0.81446 2.43442,1.57726 3.85469,1.7283 0.47864,0.0509 1.00471,0.13334 1.44246,-0.0668 1.72775,-0.78987 3.43329,-1.6868 4.93591,-2.84917 0.51415,-0.39773 0.63286,-1.13562 0.9493,-1.70343 0.21245,-0.82998 0.49322,-1.6454 0.63735,-2.48993 0.67572,-3.95951 0.26889,-8.07751 -0.73797,-11.93914 -0.21489,-0.82418 -0.49856,-1.62888 -0.74784,-2.44332 -0.64581,-2.10737 -1.52618,-3.767201 -2.82942,-5.50871 0,0 -3.71717,2.22005 -3.71717,2.22005 v 0 c 1.38164,1.63582 2.29314,3.17918 2.99586,5.23774 0.26213,0.79441 0.56349,1.57694 0.7864,2.38324 1.03828,3.75556 1.43753,7.94397 0.59599,11.78388 -0.18275,0.8339 -0.52762,1.62382 -0.79142,2.43572 -0.36476,0.52183 -1.71159,1.40966 -1.09428,1.56549 0.88247,0.22278 1.78557,-0.5931 2.43984,-1.2258 0.32916,-0.31831 -0.90408,0.20522 -1.36143,0.18294 -1.29737,-0.0632 -2.69065,-0.83723 -3.73467,-1.54382 -0.33875,-0.31476 -0.70477,-0.60252 -1.01627,-0.94427 -1.95574,-2.1457 -3.09265,-4.92274 -3.59017,-7.74838 -0.0507,-0.60522 -0.1396,-1.20845 -0.15196,-1.81565 -0.0568,-2.78781 0.73285,-5.5337 2.13849,-7.92636 0.27477,-0.36886 0.5294,-0.75361 0.8243,-1.10659 0.26597,-0.31835 1.24908,-1.034779 0.85541,-0.90392 -1.06023,0.35243 -1.95951,1.07416 -2.94594,1.59884 -0.21549,0.11461 0.41197,-0.26441 0.63275,-0.36848 0.17503,-0.0825 0.36278,-0.13607 0.54903,-0.18855 0.14275,-0.0402 0.29062,-0.0593 0.43593,-0.089 0,0 3.6121,-2.624333 3.6121,-2.624333 z" />
    <path
       style="fill:#000000;stroke-width:0.264583"
       id="path158"
       d="m 130.05934,129.91402 c -0.0135,4.98866 -0.0991,9.97657 -0.21605,14.9639 -0.10514,3.75279 -0.0511,1.96208 -0.16002,5.37217 0,0 3.63225,-1.84406 3.63225,-1.84406 v 0 c -0.0104,-3.3544 -0.0117,-1.59009 0.008,-5.29295 0.0794,-5.08084 0.1757,-10.16867 0.71372,-15.22603 0,0 -3.97815,2.02697 -3.97815,2.02697 z" />
    <path
       style="fill:#000000;stroke-width:0.264583"
       id="path164"
       d="m 119.89116,131.39831 c 4.5224,-0.62468 9.01912,-1.43391 13.53272,-2.12515 1.812,-0.27681 3.62801,-0.52562 5.44959,-0.7298 0,0 3.48819,-2.60076 3.48819,-2.60076 v 0 c -1.89979,0.25768 -3.79192,0.566 -5.68225,0.88543 -4.39248,0.73236 -8.78547,1.54002 -13.22337,1.9382 0,0 -3.56488,2.63208 -3.56488,2.63208 z" />
    <path
       style="fill:#000000;stroke-width:0.264583"
       id="path166"
       d="m 143.35658,155.13018 c 0.31573,5.91763 -0.78114,11.80604 -1.8018,17.61073 0.0327,1.15225 -0.16359,3.1903 0.73061,4.23823 1.04622,1.22607 3.12233,1.54897 4.5386,1.76038 1.78673,0.26672 3.49353,0.24397 5.28927,0.27731 0.71456,-0.0157 1.42912,-0.0314 2.14369,-0.0471 0,0 3.32313,-2.43186 3.32313,-2.43186 v 0 c -0.72932,0.0339 -1.45865,0.0677 -2.18798,0.10154 -1.89696,-0.001 -3.35769,0.06 -5.25493,-0.20217 -1.14886,-0.15875 -3.28946,-0.48548 -4.20499,-1.4886 -0.88612,-0.97091 -0.75014,-2.85077 -0.81566,-3.95068 0.50181,-3.35312 1.00933,-6.70534 1.45226,-10.06692 0.15123,-1.14774 0.31676,-2.29409 0.43219,-3.44598 0.1344,-1.34129 0.18738,-2.95871 0.24487,-4.33653 0,0 -3.88926,1.98167 -3.88926,1.98167 z" />
    <path
       style="fill:#000000;stroke-width:0.264583"
       id="path172"
       d="m 142.87119,154.93806 c 1.89396,0.11687 3.791,0.16459 5.68772,0.21 1.25258,0.0307 2.50525,0.0584 3.75814,0.0721 0.73181,0.008 1.46365,0.001 2.19548,2.5e-4 0,0 3.59643,-2.61335 3.59643,-2.61335 v 0 c -0.73266,-3e-5 -1.46533,-0.005 -2.19797,0.003 -1.28141,0.009 -2.56289,0.0167 -3.84428,2.7e-4 -1.85765,-0.0309 -3.71877,-0.0658 -5.56857,-0.25258 0,0 -3.62695,2.5803 -3.62695,2.5803 z" />
    <path
       style="fill:#000000;stroke-width:0.264583"
       id="path178"
       d="m 135.74218,166.3716 c 1.28992,-0.0259 2.58015,-0.0237 3.87024,-0.0325 1.97307,-0.0149 3.94619,-0.008 5.91929,-0.006 1.02185,0.003 2.0437,0.009 3.06553,0.0169 0,0 3.55884,-2.58565 3.55884,-2.58565 v 0 c -1.03733,0.008 -2.07468,0.0143 -3.11204,0.0169 -1.96783,0.002 -3.93569,0.009 -5.90349,-0.006 -1.26031,-0.009 -2.52078,-0.006 -3.78091,-0.0325 0,0 -3.61746,2.62824 -3.61746,2.62824 z" />
    <path
       style="fill:#000000;stroke-width:0.264583"
       id="path182"
       d="m 161.68236,200.05904 c 0.054,1.35401 0.0471,2.70951 0.0374,4.06428 -0.0554,1.03662 0.0769,2.05151 0.54322,2.98182 0.50337,0.76529 1.35672,1.19835 2.13069,1.64501 0.95497,0.55163 1.94965,1.01952 3.0148,1.30819 1.49562,0.40678 2.65792,-0.004 3.99475,-0.67245 3.18387,-1.85352 5.08795,-2.38087 6.51989,-5.43728 0.32837,-1.3797 0.69754,-2.84874 0.53851,-4.28091 -0.0315,-0.28393 -0.10482,-0.56165 -0.15723,-0.84248 -0.44469,-1.59854 -1.52977,-2.83127 -2.67202,-3.98108 -0.82609,-0.85327 -1.81115,-1.48198 -2.81789,-2.09248 -0.77692,-0.45681 -1.58938,-0.82752 -2.45009,-1.0911 -1.04163,-0.24818 -2.09974,-0.36701 -3.12948,-0.66788 -0.93849,-0.2705 -1.38139,-0.76263 -1.79993,-1.59642 -0.28103,-0.59074 -0.33757,-1.23563 -0.37442,-1.87844 0.0717,-1.34211 0.89639,-2.12756 1.91513,-2.88684 1.22627,-0.84301 4.58322,-2.91871 -1.2469,0.61655 -0.22008,0.13344 0.45722,-0.23653 0.68768,-0.35111 0.64638,-0.32136 0.53739,-0.26335 1.19085,-0.53455 0.85792,-0.29426 1.72537,-0.5626 2.61911,-0.72189 0.93665,-0.16797 1.25934,-0.0664 1.93765,0.60951 0.60414,0.70276 0.88885,1.57705 1.17296,2.44026 0,0 3.8855,-2.13727 3.8855,-2.13727 v 0 c -0.302,-0.9265 -0.64797,-1.8462 -1.27929,-2.60622 -0.60729,-0.66758 -1.20748,-1.16809 -2.15538,-0.97831 -0.93264,0.12346 -1.82311,0.39942 -2.71936,0.67889 -0.66624,0.23885 -1.33818,0.51756 -1.95624,0.86614 -2.09778,1.18313 -4.24341,2.30575 -6.18171,3.74342 -0.22192,0.19303 -0.46049,0.36844 -0.66577,0.57907 -0.70904,0.72749 -1.16002,1.7064 -1.15632,2.7235 0.0373,0.70483 0.14483,1.40112 0.46066,2.04163 0.44928,0.87531 1.03656,1.57398 2.01483,1.87917 1.02114,0.33991 2.06274,0.48314 3.11719,0.67902 0.83154,0.25609 1.63602,0.55637 2.39386,0.99329 0.97461,0.60939 1.99475,1.14083 2.80385,1.98293 1.09948,1.06675 2.13721,2.22408 2.55072,3.73888 0.0422,0.26208 0.10341,0.52179 0.12665,0.78622 0.12102,1.37699 -0.20714,2.80814 -0.65416,4.09702 -0.32797,0.60393 -0.66935,1.17214 -1.14081,1.67917 -1.05222,1.13164 -3.69209,2.52586 2.03119,-0.79111 -1.30571,0.73427 -2.23868,1.23276 -3.7648,0.9016 -1.04645,-0.23284 -2.0214,-0.66275 -2.9467,-1.20365 -0.69645,-0.40414 -1.474,-0.79155 -1.97212,-1.44009 -0.43509,-0.86431 -0.5397,-1.81008 -0.49976,-2.77163 -0.01,-1.36747 -0.0158,-2.73562 0.0374,-4.10237 0,0 -3.98407,2.02999 -3.98407,2.02999 z" />
  </g>
</svg>
